<svg width="35" height="34" viewBox="0 0 35 34" fill="none" xmlns="http://www.w3.org/2000/svg">
<g clip-path="url(#clip0_64_1927)">
<path fill-rule="evenodd" clip-rule="evenodd" d="M18.1318 10.1053C18.9501 8.8779 20.1633 8.43139 21.4853 8.45051C24.162 8.48924 26.7998 10.6926 26.7998 13.7504C26.7998 16.9962 24.6976 19.8952 22.2768 22.0611C21.0843 23.128 19.8594 23.9756 18.877 24.5525C18.3854 24.8412 17.9652 25.0559 17.6497 25.1947C17.4983 25.2613 17.3817 25.3057 17.2998 25.3323C17.2179 25.3057 17.1013 25.2613 16.9499 25.1947C16.6344 25.0559 16.2142 24.8412 15.7226 24.5525C14.7402 23.9756 13.5153 23.128 12.3228 22.0611C9.902 19.8952 7.7998 16.9962 7.7998 13.7504C7.7998 10.6809 10.4474 8.45062 13.0998 8.45062C14.42 8.45062 15.6555 8.88699 16.4678 10.1053C16.6532 10.3835 16.9655 10.5506 17.2998 10.5506C17.6342 10.5506 17.9464 10.3835 18.1318 10.1053ZM21.5143 6.45072C20.0471 6.42949 18.5098 6.84343 17.2974 8.00167C16.0752 6.84615 14.5251 6.45062 13.0998 6.45062C9.45218 6.45062 5.7998 9.47013 5.7998 13.7504C5.7998 17.8543 8.42261 21.2552 10.9893 23.5516C12.2906 24.7159 13.6251 25.6401 14.7098 26.2771C15.2518 26.5954 15.7421 26.8483 16.1444 27.0253C16.3448 27.1135 16.5351 27.188 16.7065 27.2424C16.8528 27.2888 17.0731 27.3499 17.2998 27.3499C17.5265 27.3499 17.7468 27.2888 17.8931 27.2424C18.0646 27.188 18.2548 27.1135 18.4552 27.0253C18.8575 26.8483 19.3478 26.5954 19.8898 26.2771C20.9746 25.6401 22.3091 24.7159 23.6103 23.5516C26.177 21.2552 28.7998 17.8543 28.7998 13.7504C28.7998 9.45847 25.1377 6.50315 21.5143 6.45072ZM18.901 14.0687C19.222 13.6192 19.1179 12.9947 18.6685 12.6737C18.2191 12.3527 17.5946 12.4568 17.2735 12.9062L14.6485 16.5812C14.4308 16.886 14.4017 17.2869 14.5731 17.62C14.7445 17.9531 15.0877 18.1624 15.4623 18.1624H17.1941L15.6985 20.2562C15.3775 20.7056 15.4816 21.3301 15.931 21.6511C16.3805 21.9722 17.005 21.8681 17.326 21.4187L19.951 17.7437C20.1687 17.4388 20.1979 17.0379 20.0264 16.7048C19.855 16.3718 19.5119 16.1624 19.1373 16.1624H17.4055L18.901 14.0687Z" fill="black"/>
</g>
<defs>
<clipPath id="clip0_64_1927">
<rect width="24" height="24" fill="white" transform="translate(5.25 5)"/>
</clipPath>
</defs>
</svg>
