<svg width="32" height="32" viewBox="0 0 32 32" fill="none" xmlns="http://www.w3.org/2000/svg">
<path d="M18.7685 20.5823C20.23 19.6401 21.5691 18.8643 22.7289 18.2393C24.613 17.224 26.5905 18.8724 26.126 20.9615V20.9615C25.8991 21.9819 25.1052 22.7806 24.0863 23.0138L13.2654 25.4902C10.4007 26.1459 8.12066 23.0871 9.56737 20.529V20.529C9.78793 20.139 10.083 19.7935 10.4443 19.5284C12.7409 17.843 14.8147 16.9326 16.8317 16.219C20.0807 15.0696 21.3134 11.4014 19.4232 8.51966V8.51966C18.3918 6.9472 16.629 5.9443 14.7674 6.21046C10.0657 6.88267 5.12519 9.3148 5.79461 15.6044C6.35457 20.8656 13.8632 23.7448 18.7685 20.5823Z" stroke="black" stroke-width="1.6" stroke-linecap="round" stroke-linejoin="round"/>
</svg>
