<svg width="32" height="32" viewBox="0 0 32 32" fill="none" xmlns="http://www.w3.org/2000/svg">
<path d="M20.333 3.59961C21.5108 3.59987 22.4666 4.55556 22.4668 5.7334L22.4658 6.26953C22.8762 6.30346 23.1989 6.64737 23.1992 7.06641C23.1992 7.5081 22.8411 7.866 22.3994 7.86621H20.9326C20.4912 7.8657 20.1328 7.50792 20.1328 7.06641C20.1331 6.64778 20.4555 6.30404 20.8652 6.26953L20.8662 5.7334C20.866 5.43922 20.6272 5.20046 20.333 5.2002H17.1338V11.0674H20.5996C22.7347 11.0675 24.4654 12.7985 24.4658 14.9336V26.8672H25.0664C25.508 26.8673 25.866 27.2254 25.8662 27.667C25.866 28.1086 25.508 28.4667 25.0664 28.4668H16.1328L16.0664 28.4629L16 28.4668H7.06641C6.62484 28.4666 6.26678 28.1086 6.2666 27.667C6.26681 27.2255 6.62486 26.8674 7.06641 26.8672H8.2002V14.9336C8.20062 12.7986 9.93132 11.0676 12.0664 11.0674H15.5322L15.5332 5.2002H12.334C12.0396 5.20023 11.801 5.43908 11.8008 5.7334V6.26953C12.2108 6.30377 12.5329 6.64758 12.5332 7.06641C12.5332 7.50812 12.1751 7.86603 11.7334 7.86621H10.2666C9.82498 7.86596 9.4668 7.50808 9.4668 7.06641C9.46712 6.64738 9.78985 6.30348 10.2002 6.26953V5.7334C10.2004 4.55542 11.156 3.59964 12.334 3.59961H20.333ZM12.0664 12.667C10.815 12.6672 9.80023 13.6822 9.7998 14.9336V26.8672H12.8467C12.0731 26.0246 11.6007 24.9009 11.6006 23.667V23.333C11.6008 21.651 12.4786 20.1743 13.8008 19.335V16.2188C13.8009 15.6532 14.0249 15.1099 14.4248 14.71L15.5322 13.6016V12.667H12.0664ZM17.1338 12.667V13.6025L18.2412 14.71C18.6412 15.1099 18.8651 15.6532 18.8652 16.2188V19.335C20.1874 20.1743 21.0652 21.651 21.0654 23.333V23.667C21.0653 24.901 20.5931 26.0246 19.8193 26.8672H22.8662V14.9336C22.8658 13.6822 21.8511 12.6671 20.5996 12.667H17.1338ZM16.333 20.2002C14.6032 20.2008 13.2006 21.6032 13.2002 23.333V23.667C13.2004 25.397 14.6031 26.7983 16.333 26.7988C18.0631 26.7985 19.4656 25.3971 19.4658 23.667V23.333C19.4654 21.603 18.063 20.2005 16.333 20.2002ZM15.5566 15.8418C15.4568 15.9417 15.4005 16.0775 15.4004 16.2188V18.5996H17.2656V16.2188C17.2655 16.0775 17.2093 15.9417 17.1094 15.8418L16.333 15.0654L15.5566 15.8418Z" fill="black"/>
</svg>
