<svg width="32" height="32" viewBox="0 0 32 32" fill="none" xmlns="http://www.w3.org/2000/svg">
<path d="M21.7581 4.87988C23.0756 4.88006 24.1437 5.94801 24.1438 7.26562V13.1514C24.1438 13.6055 24.3779 14.0278 24.7629 14.2686C25.6157 14.8016 26.1339 15.7365 26.134 16.7422V24.6514C26.1339 26.0885 24.9687 27.2538 23.5315 27.2539H8.60181C7.16466 27.2538 5.9994 26.0885 5.99927 24.6514V16.7422C5.99941 15.7365 6.51758 14.8016 7.37036 14.2686C7.75544 14.0278 7.9895 13.6055 7.9895 13.1514V7.26562C7.98955 5.94802 9.05767 4.88008 10.3752 4.87988C11.693 4.87988 12.7609 5.9479 12.761 7.26562V8.47852C12.761 9.5823 13.6563 10.4773 14.76 10.4775H17.3733C18.477 10.4773 19.3723 9.58231 19.3723 8.47852V7.26562C19.3724 5.9479 20.4403 4.87988 21.7581 4.87988ZM10.3752 6.47949C9.94133 6.47968 9.58916 6.83167 9.58911 7.26562V13.1514C9.58911 14.1572 9.071 15.0929 8.21802 15.626C7.83326 15.8667 7.59902 16.2883 7.59888 16.7422V24.6514C7.59901 25.2049 8.04831 25.6532 8.60181 25.6533H15.2668V23.1484H10.718C10.2762 23.1484 9.91825 22.7904 9.91821 22.3486C9.91821 21.9068 10.2762 21.5488 10.718 21.5488H15.2668V19.417H10.718C10.2763 19.417 9.91842 19.0588 9.91821 18.6172C9.91821 18.1754 10.2762 17.8174 10.718 17.8174H15.2668V12.0771H14.76C12.7726 12.0769 11.1614 10.466 11.1614 8.47852V7.26562C11.1613 6.83156 10.8093 6.47949 10.3752 6.47949ZM21.7581 6.47949C21.324 6.47949 20.972 6.83156 20.9719 7.26562V8.47852C20.9719 10.466 19.3607 12.0769 17.3733 12.0771H16.8665V17.8174H21.2913L21.3733 17.8213C21.7766 17.8624 22.092 18.2031 22.092 18.6172C22.0918 19.0311 21.7765 19.372 21.3733 19.4131L21.2913 19.417H16.8665V21.5488H21.2913L21.3733 21.5527C21.7766 21.5938 22.092 21.9345 22.092 22.3486C22.092 22.7627 21.7766 23.1034 21.3733 23.1445L21.2913 23.1484H16.8665V25.6533H23.5315C24.085 25.6532 24.5343 25.2049 24.5344 24.6514V16.7422C24.5343 16.2883 24.3001 15.8667 23.9153 15.626C23.0623 15.0929 22.5442 14.1572 22.5442 13.1514V7.26562C22.5441 6.83166 22.192 6.47967 21.7581 6.47949Z" fill="black"/>
</svg>
